PathFileType	4	(X/Y/Z)	C:/Users/opensim2020/Desktop/walking_exp_matlab/subject02_walking16_run.trc	
DataRate	CameraRate	NumFrames	NumMarkers	Units	OrigDataRate	OrigDataStartFrame	OrigNumFrames	
100.00	100.00	6	51	mm	100.00	153	124	
Frame#	Time	RTOE			LSHO			LELB			RELB			RFIN			LTHI			LKNE			RWRB			RUPA			LTIB			RASI			LANK			LTOE			RSHO			RWRA			RFRM			LASI			STRN			LFHD			RTHI			RFHD			LWRB			LFIN			LUPA			RKNE			RBHD			LFRM			C7			LWRA			RTIB			CLAV			LHEE			RANK			LBHD			RBAK			RHEE			T10			LPSI			RPSI			*39			*40			*41			*42			*43			*44			*45			*46			*47			*48			*49			*50			
		X1	Y1	Z1	X2	Y2	Z2	X3	Y3	Z3	X4	Y4	Z4	X5	Y5	Z5	X6	Y6	Z6	X7	Y7	Z7	X8	Y8	Z8	X9	Y9	Z9	X10	Y10	Z10	X11	Y11	Z11	X12	Y12	Z12	X13	Y13	Z13	X14	Y14	Z14	X15	Y15	Z15	X16	Y16	Z16	X17	Y17	Z17	X18	Y18	Z18	X19	Y19	Z19	X20	Y20	Z20	X21	Y21	Z21	X22	Y22	Z22	X23	Y23	Z23	X24	Y24	Z24	X25	Y25	Z25	X26	Y26	Z26	X27	Y27	Z27	X28	Y28	Z28	X29	Y29	Z29	X30	Y30	Z30	X31	Y31	Z31	X32	Y32	Z32	X33	Y33	Z33	X34	Y34	Z34	X35	Y35	Z35	X36	Y36	Z36	X37	Y37	Z37	X38	Y38	Z38	X39	Y39	Z39	X40	Y40	Z40	X41	Y41	Z41	X42	Y42	Z42	X43	Y43	Z43	X44	Y44	Z44	X45	Y45	Z45	X46	Y46	Z46	X47	Y47	Z47	X48	Y48	Z48	X49	Y49	Z49	X50	Y50	Z50	X51	Y51	Z51	

1	0.000	36.78139	-2019.88733	29.63113	-177.55025	-2061.66504	1438.41382	-384.13483	-1986.90320	1176.84119	262.14044	-2348.57349	1146.50659	261.62991	-2167.10889	907.30188	-210.87492	-2280.48413	611.00439	-174.79163	-2361.39404	440.40869	259.06955	-2233.53687	920.59174	227.87563	-2290.73999	1278.50366	-177.69077	-2548.26440	413.01096	76.93674	-2157.78027	939.39459	-151.88031	-2744.93115	324.60913	-144.91344	-2801.04932	172.41919	158.10698	-2154.41455	1413.45435	228.24953	-2198.68530	954.42456	265.87921	-2288.06738	1038.79932	-164.15117	-2133.79932	928.77252	-14.76318	-2051.95752	1200.86340	-78.96722	-2063.57568	1678.56104	164.13055	-2176.39502	648.35620	66.24109	-2055.67090	1668.38318	-346.24814	-1934.48352	915.54022	-320.97076	-1936.19836	852.03638	-319.19406	-2023.19275	1304.48267	119.36073	-2099.03491	455.24173	60.87778	-2176.17163	1557.93042	-372.60074	-1954.06970	1037.25049	-37.16805	-2181.54614	1466.05518	-299.20541	-1970.04907	919.87970	83.90097	-2154.32520	276.92282	-11.13119	-2056.10962	1384.41846	-97.37625	-2758.61108	354.57797	10.30445	-2169.34741	89.73700	-81.66186	-2171.02295	1574.07898	-3.75212	-2281.97192	1331.33838	-58.25241	-2191.64844	40.85037	-71.45210	-2294.09912	1237.84241	-115.46824	-2323.18701	1029.51208	0.80291	-2345.48047	1037.88440				-3357.08472	2845.95410	1034.30164																									10.49185	-2176.56958	1720.23401			 
2	0.010	38.48108	-2019.20313	25.10073	-174.70288	-2027.65369	1430.42224	-388.73032	-1959.83350	1171.53516	266.59741	-2301.02905	1127.00317	259.07547	-2105.12646	901.61060	-208.93614	-2230.64429	600.62518	-173.60388	-2301.72290	430.50027	257.78210	-2172.04907	910.93787	234.77936	-2250.80029	1260.96143	-176.97972	-2486.92310	410.02036	82.75552	-2126.10864	935.05872	-150.56862	-2687.98022	333.19250	-149.56552	-2745.09497	182.41179	163.18307	-2121.26294	1406.84912	226.87141	-2139.91309	946.98328	267.00797	-2233.65918	1023.32678	-160.47549	-2098.11475	925.68555	-11.53942	-2019.77747	1194.32361	-76.97576	-2030.35876	1673.23572	162.71698	-2150.63916	637.34900	68.24208	-2021.93347	1663.56531	-385.81348	-1917.00781	906.81995	-369.96112	-1921.44629	841.20233	-317.97208	-1990.19446	1298.23694	115.01399	-2085.22754	440.29523	63.66200	-2142.19507	1552.74133	-397.03772	-1933.29968	1031.04077	-33.88755	-2148.23511	1461.32043	-339.47968	-1953.85608	906.32776	82.85985	-2141.69653	260.70398	-8.44862	-2024.12085	1378.05054	-94.51370	-2701.26367	362.15405	5.85704	-2163.57910	77.92546	-78.67941	-2136.37280	1567.61926	0.99890	-2250.17163	1325.54822	-64.47149	-2191.14917	30.70000	-67.57652	-2261.49854	1233.09790	-113.11726	-2288.30029	1022.68951	1.64217	-2312.89648	1030.34766				-3357.01245	2845.94727	1034.43457																									12.89792	-2143.33325	1714.63257			 
3	0.020	33.63492	-2017.20337	24.88124	-172.17043	-1993.63477	1422.21704	-398.26880	-1935.16846	1169.51770	271.45547	-2251.80347	1108.97705	255.59277	-2040.38208	899.75769	-207.09290	-2179.09375	589.09760	-173.55186	-2240.75854	421.25369	255.63678	-2107.58569	903.54822	241.51514	-2208.53369	1245.45691	-176.29204	-2423.82227	406.33252	88.15995	-2095.26782	930.40582	-148.33702	-2628.14063	339.85150	-154.97203	-2682.75708	189.27312	168.23537	-2087.67358	1400.69885	224.45522	-2078.30420	942.52509	268.45419	-2177.10962	1010.28949	-156.87015	-2063.08691	920.91272	-8.13780	-1987.51587	1186.94617	-75.49809	-1996.89270	1667.88745	160.22781	-2127.33057	625.57574	69.94933	-1988.77893	1657.95911	-423.63422	-1900.24170	905.74725	-415.59805	-1907.74316	838.74731	-319.55167	-1961.65051	1292.97302	107.95802	-2070.10156	425.59717	65.78667	-2108.11450	1547.44226	-422.02637	-1913.53259	1031.04492	-30.64132	-2114.41260	1456.16602	-377.97852	-1938.09229	901.27362	76.40128	-2122.48706	246.89894	-5.77844	-1990.80164	1371.27930	-91.40183	-2643.66040	367.61823	-0.55630	-2160.59082	71.27918	-77.03933	-2104.95483	1562.77759	5.52447	-2217.96558	1318.73743	-69.76709	-2189.54565	26.84713	-63.54824	-2228.58765	1226.41235	-112.70623	-2255.75732	1015.28546	1.90460	-2280.42896	1020.49414				-3357.04395	2846.01050	1034.43701																									14.54783	-2109.96362	1709.28564			 
4	0.030	34.69046	-2016.07031	24.42658	-170.15091	-1959.45154	1414.74866	-411.04773	-1913.39124	1172.97705	276.75000	-2200.16821	1093.75684	250.79205	-1973.31543	902.36707	-204.96138	-2128.83032	581.22571	-174.18077	-2178.93237	413.57300	253.12086	-2040.34460	900.38855	247.26801	-2164.27710	1232.72534	-175.52811	-2359.13501	402.36139	92.14155	-2067.58130	923.77313	-146.62601	-2565.78345	344.44260	-160.25038	-2614.80103	193.06146	172.49239	-2053.37524	1395.43579	221.55846	-2015.42273	942.31079	270.18298	-2118.03638	1000.47577	-152.10471	-2029.74011	915.05286	-4.35900	-1954.98010	1178.93298	-74.58616	-1963.11353	1662.80981	155.82195	-2105.82349	613.84521	70.99348	-1954.59839	1653.49365	-457.93277	-1883.68005	911.37244	-455.09531	-1892.54688	844.04486	-323.98944	-1934.48596	1289.91907	104.27789	-2045.90564	418.65094	67.36434	-2073.91333	1542.53430	-446.00687	-1894.77722	1036.04297	-27.31648	-2080.99390	1451.34912	-412.60025	-1921.82678	903.70746	73.07256	-2101.52417	246.23306	-3.44736	-1956.99292	1364.11975	-89.40728	-2583.45288	370.15399	-2.44946	-2154.43457	73.98230	-75.46235	-2070.84839	1557.31262	10.03408	-2186.71655	1311.62549	-72.08346	-2186.82617	28.82812	-59.39316	-2196.24316	1218.75073	-112.24424	-2223.43066	1007.16168	2.74488	-2249.76367	1011.75659				-3356.98315	2846.04956	1034.60986																									15.51048	-2075.77954	1703.88550			 
5	0.040	34.35966	-2014.75366	24.25717	-168.69508	-1925.10999	1409.07727	-423.45889	-1894.01794	1180.64453	282.36368	-2145.72095	1081.70410	244.73967	-1904.43616	910.57080	-203.18100	-2074.49585	578.21936	-173.88290	-2116.29614	408.79901	250.29512	-1970.65186	902.25037	251.40668	-2119.99390	1223.98169	-174.26230	-2293.06738	398.62274	95.48014	-2041.40662	917.05109	-147.31883	-2500.14160	345.65344	-164.36505	-2541.11719	192.88486	175.15164	-2017.71143	1391.70544	217.66158	-1951.39978	946.33563	271.28180	-2055.98413	994.92767	-146.96930	-1996.79675	907.09619	-0.33080	-1921.97815	1170.87305	-74.25204	-1929.01538	1658.29675	151.77193	-2090.02588	609.21509	71.36458	-1920.46912	1649.65332	-487.54733	-1866.86646	921.78375	-489.62137	-1876.82227	854.98883	-329.88528	-1909.37988	1289.72864	103.10868	-2015.59863	419.24548	68.39396	-2039.55103	1538.47278	-466.68683	-1876.42773	1046.44873	-24.89991	-2046.88501	1446.17859	-441.83224	-1903.17542	911.43243	73.60150	-2086.75464	250.43347	-1.74006	-1922.29382	1357.39148	-90.82526	-2521.66064	370.98627	-3.72430	-2151.14233	79.37267	-73.96889	-2034.16711	1551.57690	13.05586	-2153.75220	1304.66541	-72.56824	-2185.03247	29.95530	-55.47121	-2164.50903	1210.52783	-111.56592	-2191.99390	998.05353	3.81596	-2220.71069	1002.37451				-3356.96289	2846.07422	1034.42151																									15.86826	-2041.52551	1699.37891			 
6	0.050	33.93030	-2015.27051	24.28027	-168.13698	-1891.37561	1405.59534	-435.25955	-1876.06848	1193.01135	288.39880	-2088.94800	1073.02600	236.41495	-1834.96301	924.34918	-200.75363	-2021.40601	578.14160	-171.58708	-2051.97021	408.10449	246.82178	-1899.81104	910.20374	254.22682	-2075.92236	1217.94922	-172.82814	-2225.53052	395.89566	99.73790	-2013.58435	909.71033	-149.31110	-2432.01294	343.59573	-166.76030	-2462.29907	188.97293	176.52306	-1981.36853	1389.45679	212.53078	-1886.90137	955.12878	272.15076	-1991.96289	994.24719	-140.46024	-1966.29321	899.10480	4.24529	-1888.90210	1164.49023	-74.50575	-1894.40063	1654.55151	150.83032	-2067.57617	607.51544	71.11607	-1886.00000	1646.87463	-513.66522	-1850.52686	937.19531	-518.89825	-1860.79883	869.78485	-337.13052	-1889.58643	1295.61157	101.81941	-1991.86487	416.85181	68.75232	-2004.85059	1535.34106	-484.97974	-1857.64331	1060.49341	-23.30169	-2012.95288	1442.78333	-466.39346	-1883.91187	924.02222	72.96477	-2079.74390	251.22017	-0.84384	-1887.31885	1351.66919	-94.83056	-2458.11987	368.45291	-4.49605	-2150.91382	78.98912	-74.09497	-2001.55078	1548.33862	15.69540	-2120.67969	1301.15259	-72.33961	-2186.11841	29.55171	-52.00689	-2132.20215	1204.29480	-110.24071	-2161.20654	987.92529	5.06521	-2192.65112	992.47217				-3356.93726	2846.13770	1034.48206																									15.34480	-2007.40540	1695.88721			 
